<svg xmlns="http://www.w3.org/2000/svg" width="600" height="369.074" viewBox="0 0 600 369.074"><path d="M340.38 134.832v-16.67c0-1.778-.294-2.667-.887-2.667-.521 0-.927.778-1.222 2.334-.596 2.816-1.222 5.373-1.89 7.668-.669 2.298-1.557 4.278-2.667 5.946-1.11 1.666-2.52 2.945-4.223 3.833-1.707.89-3.853 1.333-6.448 1.333h-22.782V65.485h10.56v-1.778h-30.898v1.778h9.558v71.124h-9.558v1.78h57.234c2.15 0 3.224-1.185 3.224-3.557zm24.673 4l-6.444 17.003c-.963 2.446-2.018 4.26-3.168 5.447-1.15 1.184-2.24 1.777-3.276 1.777-.596 0-.983-.149-1.17-.444a14.566 14.566 0 0 1-.61-1.11c-.445-.965-1.002-1.688-1.667-2.168-.668-.483-1.556-.722-2.666-.722-1.262 0-2.225.406-2.89 1.222-.668.814-1 1.777-1 2.89 0 1.405.463 2.537 1.39 3.389.924.85 2.349 1.277 4.279 1.277 2.59 0 4.999-.982 7.22-2.945 2.225-1.964 3.964-4.649 5.225-8.056l22.894-59.789h7.335v-1.779h-17.56v1.779h8.223L369.61 126.83 356.72 96.603h8.557v-1.779h-26.114v1.779h7.335l18.556 42.23zm35.395-5.166a22.022 22.022 0 0 0 7.224 4.667c2.706 1.072 5.429 1.611 8.17 1.611 2.74 0 5.148-.427 7.225-1.277 2.07-.852 3.813-1.927 5.222-3.224 1.405-1.296 2.516-2.667 3.335-4.112.812-1.444 1.405-2.76 1.776-3.946.147-.444.222-.738.222-.887 0-.667-.295-1.001-.888-1.001-.445 0-.78.372-1.002 1.112-.442 1.407-1.11 2.796-1.998 4.167a17.195 17.195 0 0 1-3.28 3.722c-1.297 1.112-2.817 2.002-4.557 2.668s-3.65 1-5.723 1c-2.297 0-4.168-.333-5.612-1-1.445-.666-2.595-1.759-3.444-3.28-.851-1.516-1.428-3.48-1.723-5.888-.298-2.408-.445-5.353-.445-8.836v-4.89c0-3.63.222-6.668.668-9.112.446-2.445 1.127-4.426 2.054-5.946.927-1.517 2.094-2.593 3.502-3.222 1.406-.629 3.073-.945 5-.945 2.742 0 4.612.352 5.612 1.055 1.002.706 1.5 1.205 1.5 1.5 0 .298-.108.557-.33.778-.522.595-.912 1.206-1.17 1.835-.26.629-.387 1.427-.387 2.388 0 1.484.482 2.613 1.445 3.391.96.776 2.074 1.166 3.332 1.166 1.484 0 2.67-.445 3.558-1.333.887-.89 1.333-2.038 1.333-3.445s-.482-2.685-1.445-3.835c-.963-1.148-2.165-2.111-3.61-2.89a19.481 19.481 0 0 0-4.724-1.776c-1.707-.408-3.335-.613-4.892-.613-2.89 0-5.703.575-8.445 1.723a24.16 24.16 0 0 0-7.336 4.778c-2.149 2.04-3.888 4.502-5.222 7.391-1.333 2.89-2.001 6.076-2.001 9.557 0 3.556.648 6.762 1.946 9.613 1.294 2.854 3 5.298 5.11 7.336zm76.069-66.29h-9.557L457.957 84.6l.888.444 17.672-17.67zm-31.785 65.345c1.85 2.149 4.095 3.888 6.725 5.223 2.628 1.334 5.501 2 8.613 2 2.516 0 4.813-.352 6.89-1.056 2.074-.703 3.905-1.666 5.5-2.89a18.472 18.472 0 0 0 4.057-4.278 23.96 23.96 0 0 0 2.666-5.111 3.91 3.91 0 0 0 .334-1.556c0-.518-.222-.778-.668-.778-.37 0-.704.372-1 1.11a31.767 31.767 0 0 1-2.499 4.669 17.56 17.56 0 0 1-3.67 4.111c-1.444 1.186-3.092 2.15-4.943 2.89-1.854.742-4 1.11-6.447 1.11-2.962 0-5.353-1.11-7.168-3.333-1.815-2.223-2.723-5.78-2.723-10.669v-11.335h26.786c1.183 0 1.775-.482 1.775-1.445-.072-1.184-.461-2.814-1.166-4.89-.704-2.073-1.795-4.073-3.28-6.001-1.48-1.925-3.442-3.612-5.886-5.057-2.448-1.445-5.449-2.167-9.003-2.167-2.965 0-5.724.706-8.279 2.111-2.555 1.41-4.763 3.224-6.614 5.447s-3.296 4.742-4.335 7.556c-1.038 2.818-1.553 5.668-1.553 8.557s.515 5.706 1.553 8.446c1.039 2.742 2.484 5.188 4.335 7.336zm5.667-26.116c0-2.446.279-4.426.836-5.946.553-1.517 1.277-2.685 2.165-3.5.891-.815 1.89-1.37 3.001-1.668a12.964 12.964 0 0 1 3.335-.444c1.78 0 3.24.316 4.39.945 1.147.629 2.054 1.463 2.723 2.5a9.342 9.342 0 0 1 1.333 3.444c.223 1.262.334 2.558.334 3.89 0 3.483-.557 5.223-1.667 5.223h-16.45v-4.444zm57.902 33.34c2.516 0 4.813-.353 6.89-1.057 2.074-.703 3.905-1.666 5.5-2.89a18.473 18.473 0 0 0 4.057-4.278 23.96 23.96 0 0 0 2.666-5.111 3.91 3.91 0 0 0 .334-1.556c0-.518-.222-.778-.668-.778-.37 0-.704.372-1 1.11-.664 1.556-1.5 3.113-2.499 4.669s-2.224 2.927-3.669 4.111c-1.445 1.186-3.093 2.15-4.944 2.89-1.854.742-4 1.11-6.447 1.11-2.962 0-5.353-1.11-7.168-3.333-1.815-2.223-2.723-5.78-2.723-10.669v-11.335h26.786c1.183 0 1.776-.482 1.776-1.445-.073-1.184-.462-2.814-1.167-4.89-.704-2.073-1.795-4.073-3.28-6.001-1.48-1.925-3.442-3.612-5.886-5.057-2.448-1.445-5.449-2.167-9.003-2.167-2.965 0-5.724.706-8.279 2.111-2.555 1.41-4.763 3.224-6.614 5.447s-3.296 4.742-4.335 7.556c-1.038 2.818-1.553 5.668-1.553 8.557s.515 5.706 1.553 8.446c1.039 2.742 2.484 5.188 4.335 7.336 1.85 2.149 4.095 3.888 6.726 5.223 2.627 1.334 5.5 2 8.612 2zm-9.67-33.34c0-2.446.278-4.426.835-5.946.553-1.517 1.277-2.685 2.165-3.5.891-.815 1.89-1.37 3.001-1.668a12.964 12.964 0 0 1 3.335-.444c1.78 0 3.24.316 4.39.945 1.147.629 2.054 1.463 2.723 2.5a9.342 9.342 0 0 1 1.333 3.444c.223 1.262.334 2.558.334 3.89 0 3.483-.557 5.223-1.667 5.223h-16.45v-4.444zm-262.452 73.523c-.472 0-.847.658-1.129 1.972-.377 1.974-.753 3.76-1.127 5.358-.377 1.597-.916 2.957-1.622 4.087-.704 1.127-1.669 1.995-2.89 2.608-1.221.61-2.867.914-4.933.914h-11.135v-41.442h21.425c3.195 0 5.873.777 8.035 2.327a18.093 18.093 0 0 1 5.216 5.78 27.433 27.433 0 0 1 2.89 7.329c.61 2.586.962 4.912 1.057 6.978 0 1.317.374 1.974 1.127 1.974.657 0 .988-.611.988-1.833v-21.426c0-2.256-1.176-3.382-3.525-3.382h-63.01v2.253h12.124v90.217h-11.842v2.254h37.638v-2.254h-12.123v-46.518h11.135c2.066 0 3.712.305 4.934.914 1.22.613 2.185 1.48 2.89 2.608.705 1.13 1.244 2.493 1.621 4.088.374 1.6.75 3.385 1.127 5.357.282 1.317.657 1.972 1.129 1.972.563 0 .845-.61.845-1.831v-28.614c0-1.127-.282-1.69-.845-1.69zm67.66 48.067c-.472 0-.891.468-1.271 1.409a40.096 40.096 0 0 1-3.172 5.92 22.28 22.28 0 0 1-4.648 5.215c-1.833 1.504-3.925 2.726-6.274 3.666-2.35.94-5.075 1.409-8.176 1.409-3.76 0-6.79-1.409-9.091-4.23-2.305-2.817-3.455-7.328-3.455-13.53v-14.379h33.97c1.507 0 2.26-.61 2.26-1.835-.097-1.5-.589-3.567-1.48-6.201-.898-2.63-2.28-5.167-4.16-7.61s-4.37-4.584-7.472-6.415c-3.1-1.832-6.906-2.749-11.417-2.749-3.76 0-7.26.894-10.502 2.68a29.023 29.023 0 0 0-8.386 6.906c-2.351 2.817-4.184 6.015-5.5 9.586-1.316 3.57-1.972 7.188-1.972 10.854 0 3.662.656 7.237 1.973 10.713 1.315 3.476 3.148 6.578 5.499 9.304 2.347 2.726 5.19 4.934 8.527 6.624 3.335 1.69 6.978 2.536 10.924 2.536 3.195 0 6.109-.446 8.74-1.337 2.63-.894 4.956-2.116 6.978-3.666a23.4 23.4 0 0 0 5.143-5.428 30.392 30.392 0 0 0 3.388-6.484c.281-.655.419-1.314.419-1.972 0-.659-.282-.986-.845-.986zm-36.087-22.415c0-3.1.354-5.612 1.059-7.542.704-1.923 1.62-3.404 2.748-4.44 1.127-1.031 2.397-1.739 3.805-2.112 1.41-.377 2.82-.567 4.23-.567 2.255 0 4.11.403 5.568 1.2 1.456.798 2.607 1.857 3.453 3.17a11.783 11.783 0 0 1 1.692 4.37 28.38 28.38 0 0 1 .422 4.935c0 4.419-.704 6.624-2.114 6.624h-20.863v-5.638zm90.497-11.7c-.564.377-1.222 1.013-1.973 1.904-.753.894-1.127 2.28-1.127 4.157 0 1.976.656 3.594 1.973 4.865 1.313 1.268 3.053 1.9 5.215 1.9 1.88 0 3.525-.632 4.934-1.9 1.409-1.27 2.113-3.03 2.113-5.287 0-1.877-.373-3.453-1.127-4.721-.753-1.271-1.713-2.303-2.89-3.103-1.176-.796-2.535-1.385-4.088-1.762a20.095 20.095 0 0 0-4.72-.564c-2.255 0-4.28.331-6.062.987-1.785.658-3.384 1.457-4.793 2.398-1.408.94-2.585 1.949-3.525 3.03s-1.644 2.093-2.113 3.03v-8.177h-21.99v2.258h9.865v50.747h-9.864v2.254h31.857v-2.254h-9.868v-38.626c0-1.5.446-3.053 1.34-4.652.891-1.595 2.064-3.053 3.522-4.37a18.497 18.497 0 0 1 4.865-3.172c1.782-.796 3.522-1.195 5.216-1.195 1.031 0 1.949.068 2.748.21.796.14 1.196.494 1.196 1.058 0 .471-.233.799-.704.986zm92.33 49.762v2.254h30.167v-2.254h-9.163v-41.725c0-3.384-1.01-6.32-3.03-8.813-2.022-2.486-5.475-3.735-10.36-3.735-5.638 0-10.15 1.177-13.533 3.526-3.385 2.348-5.92 5.17-7.61 8.455-.19-2.536-.731-4.603-1.623-6.202-.894-1.595-1.975-2.817-3.243-3.662a11.08 11.08 0 0 0-4.157-1.694 23.728 23.728 0 0 0-4.37-.423c-1.691 0-3.503.167-5.426.495-1.93.331-3.833.94-5.71 1.831-1.88.895-3.69 2.114-5.429 3.666-1.74 1.55-3.266 3.548-4.58 5.99v-10.714h-21.285v2.258h9.164v50.747h-9.164v2.254h30.308v-2.254h-9.023v-35.523c0-1.127.4-2.559 1.2-4.302.795-1.736 1.903-3.427 3.311-5.075a20.618 20.618 0 0 1 4.862-4.157c1.835-1.127 3.738-1.69 5.71-1.69s3.454.4 4.44 1.199 1.693 1.759 2.116 2.89c.423 1.126.655 2.276.704 3.452.046 1.176.07 2.185.07 3.03v40.176h-9.16v2.254h30.444v-2.254h-9.16v-34.396c0-1.41.374-3.054 1.127-4.934.75-1.877 1.808-3.666 3.171-5.357 1.36-1.69 2.962-3.122 4.793-4.298s3.876-1.762 6.133-1.762c1.596 0 2.864.281 3.804.845s1.667 1.34 2.185 2.326.845 2.113.986 3.384a36.41 36.41 0 0 1 .213 4.017v40.175h-8.882zm97.688-5.924c-.282 0-.613.377-.986 1.13-.754 1.6-1.694 2.89-2.821 3.876-1.127.986-2.349 1.481-3.666 1.481-1.88 0-3.008-.776-3.381-2.326-.377-1.553-.563-3.689-.563-6.415V201.55c0-4.04-1.507-7.165-4.512-9.373-3.01-2.208-7.613-3.312-13.815-3.312-2.913 0-5.71.305-8.387.917-2.68.613-4.865 1.432-6.555 2.467-3.008 1.973-4.512 4.321-4.512 7.047 0 1.317.446 2.516 1.34 3.594.891 1.081 2.136 1.622 3.735 1.622s2.89-.469 3.876-1.409c.99-.94 1.48-2.116 1.48-3.525 0-.655-.117-1.34-.35-2.044-.236-.705-.685-1.386-1.34-2.045-.472-.468-.845-.796-1.127-.986-.282-.186-.423-.422-.423-.704 0-.374.282-.75.846-1.127.563-.377 1.267-.704 2.113-.986.845-.285 1.808-.518 2.89-.708a18.6 18.6 0 0 1 3.17-.282c2.913 0 5.216.564 6.91 1.694 1.69 1.127 2.536 3.29 2.536 6.484v16.632c-4.325 0-8.364.45-12.122 1.34-3.761.895-7.05 2.186-9.868 3.876-2.82 1.69-5.029 3.784-6.624 6.274-1.599 2.49-2.398 5.284-2.398 8.387 0 2.254.4 4.206 1.199 5.85.796 1.645 1.903 2.96 3.312 3.945 1.409.99 3.03 1.714 4.865 2.185 1.831.469 3.78.705 5.848.705 2.162 0 4.112-.259 5.851-.773 1.736-.518 3.29-1.176 4.652-1.976 1.36-.796 2.513-1.641 3.453-2.536.937-.89 1.69-1.762 2.254-2.607.282 1.972 1.176 3.784 2.68 5.425 1.5 1.644 4.135 2.467 7.892 2.467 2.444 0 4.489-.377 6.133-1.127 1.645-.754 2.981-1.642 4.017-2.677 1.035-1.035 1.762-2.09 2.185-3.171.422-1.081.635-1.903.635-2.467 0-.472-.14-.708-.422-.708zm-23.542-1.408c0 .845-.4 1.74-1.2 2.68-.799.94-1.785 1.808-2.958 2.607a17.14 17.14 0 0 1-3.666 1.904c-1.268.468-2.326.704-3.171.704-2.913 0-5.124-1.13-6.624-3.384-1.504-2.254-2.258-5.307-2.258-9.163 0-3.1.564-5.59 1.694-7.47 1.127-1.88 2.608-3.335 4.44-4.37 1.83-1.032 3.947-1.763 6.342-2.185a74.853 74.853 0 0 1 7.4-.918v19.595zm74.43-3.24c-.754 0-1.176.468-1.271 1.408-.469 3.195-1.55 5.707-3.24 7.542-1.694 1.831-3.761 2.749-6.202 2.749-3.293 0-5.642-1.127-7.05-3.385-1.41-2.254-2.113-5.638-2.113-10.149v-38.34h13.67v-2.258h-13.67V168.71l-12.125 6.062v16.066h-9.583v2.258h9.583v38.058c0 5.265 1.412 9.4 4.23 12.407 2.82 3.004 6.908 4.508 12.265 4.508 5.543 0 9.465-1.104 11.768-3.312 2.303-2.205 3.784-5.236 4.442-9.092.092-.468.141-.75.141-.845v-.422c0-.754-.282-1.127-.845-1.127zm-408.642 44.139c-.075-1.258-.817-1.887-2.223-1.887h-54.788c-1.409 0-2.15.629-2.223 1.887l-1.668 19.339h2.335c.814-6.002 2.5-10.743 5.056-14.225 2.556-3.483 5.537-5.226 8.946-5.226h9.558v71.125h-9.558v1.779h29.894v-1.78h-9.556v-71.124h9.556c3.408 0 6.39 1.743 8.948 5.226 2.555 3.482 4.239 8.223 5.056 14.225h2.333l-1.666-19.34zm38.172 35.673c-1.89-2.296-4.187-4.203-6.89-5.723-2.706-1.517-5.723-2.277-9.057-2.277-3.335 0-6.354.76-9.058 2.277-2.705 1.52-5.02 3.427-6.946 5.723a25.97 25.97 0 0 0-4.445 7.558c-1.039 2.743-1.557 5.334-1.557 7.778 0 2.447.518 5.039 1.557 7.78a25.97 25.97 0 0 0 4.445 7.559c1.927 2.296 4.241 4.203 6.946 5.723 2.704 1.517 5.723 2.277 9.058 2.277 3.334 0 6.35-.76 9.057-2.277 2.703-1.52 5-3.427 6.89-5.723a26.697 26.697 0 0 0 4.39-7.558c1.036-2.742 1.556-5.334 1.556-7.781 0-2.444-.52-5.035-1.556-7.778a26.697 26.697 0 0 0-4.39-7.558zm-5.612 17.672c0 3.332-.13 6.205-.389 8.613-.26 2.408-.742 4.39-1.444 5.943-.706 1.556-1.743 2.725-3.113 3.502-1.37.776-3.168 1.166-5.389 1.166-2.223 0-4.02-.39-5.39-1.166-1.372-.777-2.428-1.946-3.167-3.502-.742-1.553-1.242-3.535-1.5-5.943-.261-2.408-.39-5.281-.39-8.613v-4.78c0-3.112.129-5.851.39-8.223.258-2.372.758-4.37 1.5-6.002.739-1.628 1.795-2.85 3.166-3.666s3.168-1.225 5.391-1.225c2.221 0 4.018.41 5.39 1.225 1.369.816 2.406 2.038 3.112 3.666.702 1.632 1.184 3.63 1.444 6.002s.389 5.11.389 8.223v4.78zm64.348-24.116h-17.338v1.776h7.778v27.673c0 1.186-.354 2.484-1.055 3.89-.708 1.408-1.651 2.722-2.837 3.944a15.988 15.988 0 0 1-4.108 3.056c-1.56.816-3.152 1.222-4.784 1.222-2.588 0-4.259-.626-4.999-1.887-.74-1.261-1.107-3.296-1.107-6.113v-33.56h-17.34v1.775h7.78v31.008c0 2.372.295 4.335.891 5.888.59 1.556 1.402 2.778 2.444 3.669 1.035.888 2.24 1.517 3.61 1.89 1.37.367 2.798.554 4.279.554 3.925 0 7.352-.832 10.28-2.5 2.923-1.667 5.242-4.02 6.946-7.057v8.335h17.337v-1.78h-7.777v-41.783zm35.223-31.116h-17.338v1.775h7.781v71.125h-7.78v1.779h25.117v-1.78h-7.78v-72.9zm54.4 37.56c-1.89-2.296-4.187-4.203-6.89-5.723-2.706-1.517-5.723-2.277-9.058-2.277-3.332 0-6.353.76-9.056 2.277-2.706 1.52-5.022 3.427-6.945 5.723a25.898 25.898 0 0 0-4.446 7.558c-1.038 2.743-1.556 5.334-1.556 7.778 0 2.447.518 5.039 1.556 7.78a25.899 25.899 0 0 0 4.446 7.559c1.923 2.296 4.24 4.203 6.945 5.723 2.703 1.517 5.724 2.277 9.056 2.277 3.335 0 6.352-.76 9.058-2.277 2.703-1.52 5-3.427 6.89-5.723a26.697 26.697 0 0 0 4.39-7.558c1.035-2.742 1.556-5.334 1.556-7.781 0-2.444-.521-5.035-1.556-7.778a26.697 26.697 0 0 0-4.39-7.558zm-5.612 17.672c0 3.332-.131 6.205-.39 8.613-.259 2.408-.74 4.39-1.445 5.943-.704 1.556-1.74 2.725-3.112 3.502-1.37.776-3.165 1.166-5.39 1.166-2.22 0-4.02-.39-5.389-1.166-1.372-.777-2.427-1.946-3.168-3.502-.74-1.553-1.241-3.535-1.5-5.943-.259-2.408-.387-5.281-.387-8.613v-4.78c0-3.112.128-5.851.387-8.223.259-2.372.76-4.37 1.5-6.002.74-1.628 1.796-2.85 3.168-3.666 1.37-.816 3.168-1.225 5.39-1.225 2.224 0 4.02.41 5.389 1.225 1.372.816 2.408 2.038 3.112 3.666.704 1.632 1.186 3.63 1.445 6.002.259 2.372.39 5.11.39 8.223v4.78zm64.346-24.116h-17.337v1.776h7.777v27.673c0 1.186-.35 2.484-1.055 3.89-.704 1.408-1.648 2.722-2.834 3.944a15.95 15.95 0 0 1-4.111 3.056c-1.556.816-3.148 1.222-4.78 1.222-2.591 0-4.259-.626-5-1.887-.74-1.261-1.11-3.296-1.11-6.113v-33.56h-17.337v1.775h7.777v31.008c0 2.372.299 4.335.892 5.888.593 1.556 1.405 2.778 2.444 3.669a9.192 9.192 0 0 0 3.613 1.89c1.37.367 2.795.554 4.279.554 3.924 0 7.351-.832 10.277-2.5s5.242-4.02 6.945-7.057v8.335h17.337v-1.78h-7.777v-41.783zm40.447 16.224a34.877 34.877 0 0 0-2.555-.721c-1.039-.259-2.13-.537-3.277-.836-1.15-.294-2.3-.59-3.446-.887a72.74 72.74 0 0 1-2.834-.78c-1.484-.514-2.539-1.166-3.168-1.943-.629-.78-.943-1.87-.943-3.28 0-1.926.923-3.665 2.778-5.221 1.85-1.557 4.183-2.336 7-2.336 1.78 0 3.352.334 4.725 1.002 1.37.665 2.516 1.52 3.443 2.556a12.831 12.831 0 0 1 2.225 3.499 17.609 17.609 0 0 1 1.166 3.836c.072.442.295.665.665.665.295 0 .446-.223.446-.665v-11.892c0-.518-.112-.777-.335-.777-.147 0-.406.184-.776.554l-2.555 2.558c-2.3-2.073-5.114-3.112-8.446-3.112-2.372 0-4.485.387-6.336 1.166-1.855.777-3.391 1.835-4.613 3.168a13.7 13.7 0 0 0-2.778 4.554 14.993 14.993 0 0 0-.944 5.226c0 2.742.796 5.15 2.389 7.223 1.592 2.074 3.983 3.483 7.168 4.223.963.223 2.037.462 3.223.721a76.11 76.11 0 0 1 3.61.891c1.223.331 2.409.705 3.559 1.11 1.146.407 2.165.872 3.056 1.39 1.481.816 2.5 1.779 3.057 2.89.553 1.11.832 2.26.832 3.443 0 1.556-.39 2.909-1.166 4.059a9.246 9.246 0 0 1-2.946 2.778 14.036 14.036 0 0 1-3.777 1.556c-1.337.331-2.595.498-3.78.498-3.408 0-6.409-.943-9.003-2.834-2.592-1.89-4.407-4.796-5.445-8.724-.223-.665-.518-1-.888-1-.446 0-.668.299-.668.889V350.2c0 .593.222.888.668.888.295 0 .557-.184.776-.554l2.336-3.446c1.334 1.408 3.018 2.539 5.055 3.39 2.038.852 4.538 1.278 7.503 1.278 2.444 0 4.593-.39 6.444-1.166 1.85-.78 3.427-1.851 4.724-3.224a13.821 13.821 0 0 0 2.945-4.78c.668-1.815 1-3.794 1-5.943 0-2.817-.705-5.484-2.11-8.003-1.41-2.516-4.076-4.446-8.004-5.78zm59.455 13.225c-.37 0-.704.37-1 1.11-.664 1.557-1.5 3.113-2.499 4.67s-2.224 2.925-3.67 4.11c-1.444 1.187-3.092 2.15-4.943 2.89-1.854.74-4 1.111-6.447 1.111-2.962 0-5.353-1.11-7.168-3.335-1.815-2.221-2.723-5.776-2.723-10.667V324.64h26.786c1.182 0 1.775-.482 1.775-1.445-.072-1.186-.462-2.814-1.166-4.891-.704-2.071-1.795-4.073-3.28-5.999-1.48-1.926-3.443-3.614-5.887-5.058-2.447-1.445-5.448-2.166-9.002-2.166-2.965 0-5.724.704-8.28 2.11a22.963 22.963 0 0 0-6.614 5.445c-1.85 2.224-3.295 4.744-4.334 7.558-1.038 2.817-1.553 5.668-1.553 8.557s.515 5.707 1.553 8.446c1.039 2.742 2.483 5.186 4.334 7.335s4.096 3.889 6.726 5.222c2.628 1.334 5.5 2.002 8.613 2.002 2.516 0 4.813-.354 6.89-1.055 2.074-.704 3.905-1.667 5.5-2.89 1.593-1.221 2.946-2.65 4.056-4.278s2.002-3.335 2.667-5.114a3.904 3.904 0 0 0 .334-1.556c0-.518-.223-.777-.668-.777zm-28.45-17.671c0-2.444.279-4.426.836-5.946.553-1.517 1.277-2.683 2.165-3.5a7.131 7.131 0 0 1 3.001-1.667 12.967 12.967 0 0 1 3.335-.445c1.779 0 3.24.318 4.39.947 1.147.629 2.054 1.464 2.723 2.5a9.327 9.327 0 0 1 1.333 3.446c.223 1.258.334 2.555.334 3.888 0 3.483-.557 5.223-1.667 5.223h-16.45v-4.446zM134.425 140.247c4.562-2.986 7.28-9.796 9.225-15.432 1.208-3.522 3.22-6.944 5.67-7.313 12.58-1.879 25.093-3.858 37.405-6.978 7.481 5.435 13.721-.704 20.598-2.214-15.834-8.689-33.413-1.543-49.75-5.535.67-3.523-3.188-8.387 3.723-9.092 5.871-.57 4.63-7.917 8.957-9.997 15.935-7.649 15.935-7.615 10.434-21.906 4.965-5.3 13.318-6.878 17.008-14.057 3.49-6.776 11.675-7.95 16.439-12.882 4.998-5.166 12.748-7.481 15.23-14.291H250.6c1.274 2.918.369 4.529-1.175 6.407-8.957 10.769-21.872 16.774-31.668 26.536 4.663-1.073 9.326 1.242 14.358-2.012 3.925-2.516 7.95-5.469 11.708-7.38 5.2-2.618 10.936-2.114 14.76-8.924 2.785-4.898 11.608-4.429 15.869-9.897V14.679c-3.791-5.804-5.938-9.058-7.28-11.104-6.81-1.376-12.715 1.845-17.277-3.288-.604-.67-2.952 0-4.395.335-13.72 3.355-24.456 13.554-38.58 16.405-3.455.705-5.065 8.186-8.789 10.333-5.267 3.02-7.75 7.95-11.372 12.043-4.294 4.831-11.239 7.716-12.513 14.862-.739 4.193-7.616.772-7.213 7.011.201 3.087-4.663 4.831-8.22 6.509-2.582 1.207-2.381 7.883-6.172 8.588-5.066.872-7.448 4.428-10.366 7.447-3.422 3.556-9.36 3.288-11.675 8.286 2.315 3.892 7.783-.737 10.232 3.993-.47 5.334-5.837 7.28-8.185 10.433H117.45c.503-4.596 5.2-1.208 6.172-4.194-.1-2.65 1.107-5.434-1.006-8.252-8.052-1.51-13.721 1.677-16.875 9.259-4.93.47-10.567-.503-14.492 1.644-7.582 4.16-15.13 1.308-22.611 2.046-7.515.738-15.365.94-21.47-4.596-3.02-2.75-7.515-3.12-8.89-1.476-4.496 5.334-7.247.704-11.071-.336-8.924-2.381-18.216-7.01-27.207 1.88v13.418c14.023 6.441 31.166 2.583 42.572 14.929 4.227-1.678 7.514-5.032 12.379-3.657 2.08.57 5.837.94 6.44-.033 5.134-8.32 13.99-4.63 20.666-7.213 15.197-5.837 30.126-1.14 45.02-2.449 1.141 16.136-16.001 24.02-13.351 39.351-9.997-.168-9.494 9.595-14.627 13.922-4.797 3.993-.67 10.5-2.516 15.633-5.133 4.697-9.158 10.87-16.371 13.017v16.774c-6.777 7.648-11.138 15.465-13.285 24.657-.402 1.71-.805 3.187-2.147 4.126-7.548 5.469-8.454 14.761-10.836 22.31-2.851 9.024-10.4 15.968-10.634 25.83-10.098 9.16-11.742 23.35-19.994 33.65 1.811 4.427-4.63 5.635-3.657 10.298 1.375 6.844-2.55 12.48-7.112 17.009-3.389 3.32-3.12 6.575-2.147 10.332 3.354 1.51 6.642 2.986 10.366 4.663 11.876-9.494 22.477-20.464 33.38-30.528-3.02-5.602-8.454-.973-10.534-4.663 5.233-3.992.905-14.056 9.762-15.365v-6.71c5.2-6.138 7.984-13.62 9.762-21.067 1.14-4.864 3.187-9.46 5.938-12.547 6.643-7.548 8.655-15.834 7.683-24.993 3.488-3.489 6.81-6.508 9.795-9.862 5.301-5.972 8.052-13.319 10.4-20.8 3.623-11.373 4.16-23.684 12.95-33.413 1.945-2.147 5.2-6.743 3.958-11.641-.637-2.617.067-4.999 2.214-7.481 4.127-4.764 7.112-10.534 11.205-15.331 3.623-4.194 1.14-10.5 7.146-14.426zm62.901-79.876c-4.026-.302-3.388 3.019-2.315 5.67 15.298.77 19.76-1.678 22.746-12.548 0-.033.033-.1.033-.134-7.85-.738-12.513 7.548-20.464 7.012z" fill="#2a292b"/></svg>